<svg version="1.1" id="Layer_1" xmlns="http://www.w3.org/2000/svg" xmlns:xlink="http://www.w3.org/1999/xlink" x="0px" y="0px"
	 width="100%" viewBox="0 0 120 120" enable-background="new 0 0 120 120" xml:space="preserve">
<path xmlns="http://www.w3.org/2000/svg" fill="#0866FF" opacity="1.000000" stroke="none" d=" M76.286728,120.759277   C73.629440,121.000000 71.258888,121.000000 68.444168,121.000000   C65.701424,119.274292 65.633759,116.754471 65.613571,114.231850   C65.537651,104.744751 65.498596,95.256775 65.620125,85.770569   C65.722878,77.750107 66.517708,77.002182 74.492882,76.590775   C80.637573,76.273804 82.593513,74.598747 83.198166,69.267708   C83.587822,65.832169 82.305855,63.784576 78.702736,63.521099   C76.047150,63.326908 73.377747,63.474823 70.724220,63.173027   C68.363533,62.904545 66.720261,61.906349 66.011086,59.450886   C62.762215,48.201878 68.113365,39.885517 79.672134,38.593868   C83.462196,38.170341 85.493629,36.487644 85.442345,32.577499   C85.391899,28.731415 83.397514,26.730249 79.616570,26.535919   C76.292191,26.365055 72.951561,26.246906 69.642349,26.670233   C59.077709,28.021688 52.528706,34.197384 50.355564,44.652378   C49.742493,47.601887 49.458431,50.559727 49.401825,53.567287   C49.252552,61.498043 49.238762,61.568375 41.720989,63.545509   C38.248383,64.458786 37.490582,66.884209 37.491158,69.960243   C37.491734,73.032570 38.261642,75.473640 41.689789,76.430016   C49.292835,78.551086 49.324894,78.610733 49.394939,86.430176   C49.476940,95.584038 49.483833,104.739105 49.376034,113.892830   C49.349026,116.185905 49.600010,118.624077 47.293213,120.700615   C46.555553,121.000000 46.111111,121.000000 45.333332,121.000000   C39.356361,118.861862 33.206112,118.314400 27.979908,114.780762   C17.449774,107.660934 8.956479,98.914200 3.839247,87.104439   C2.504491,84.024033 2.743970,80.625076 1.240703,77.284081   C1.000000,66.645775 1.000000,56.291546 1.000000,45.468658   C3.138229,39.356384 3.685580,33.206081 7.219249,27.979866   C14.339105,17.449757 23.085825,8.956450 34.895596,3.839238   C37.975994,2.504492 41.374939,2.743963 44.715923,1.240703   C55.020893,1.000000 65.041786,1.000000 75.531342,1.000000   C81.013748,2.984855 86.510094,3.111670 91.412964,5.880621   C103.682655,12.810080 112.609665,22.560324 118.334450,35.364166   C119.630859,38.263683 119.288757,41.530243 120.759102,44.714905   C121.000000,55.020893 121.000000,65.041786 121.000000,75.531342   C119.148392,82.135010 118.300850,88.558403 114.562386,94.102539   C105.286041,107.859314 93.757019,118.210533 76.286728,120.759277  z"/>
<path fill="#ffffff" opacity="1.000000" stroke="none" 
	d="
M47.468533,121.000000 
	C46.999981,108.406548 46.919746,95.812210 47.058266,83.220284 
	C47.091484,80.200592 46.610073,78.838333 43.079365,78.901764 
	C35.004490,79.046860 35.000656,78.833580 35.000603,70.952248 
	C35.000599,70.452866 35.000599,69.953484 35.000603,69.454102 
	C35.000629,61.185734 35.001698,61.026775 43.173656,61.081505 
	C46.242001,61.102051 47.207645,60.292774 47.071400,57.184868 
	C46.820343,51.458233 47.237995,45.839108 48.786507,40.155430 
	C51.284916,30.985228 61.417221,24.384977 70.566483,24.008982 
	C72.062103,23.947519 73.562454,24.006689 75.060547,23.998724 
	C91.875069,23.909319 87.317871,24.217140 88.010391,38.373783 
	C88.102013,40.246655 87.474480,41.205418 85.483116,41.004631 
	C84.824188,40.938190 84.149574,41.040230 83.487152,40.993706 
	C67.905708,39.899437 67.599075,47.628845 67.947327,58.415524 
	C68.025436,60.834911 69.169914,61.049736 71.055252,61.019886 
	C75.382111,60.951401 79.715424,61.120693 84.037010,60.955265 
	C86.504883,60.860794 87.866013,61.970078 86.808418,64.052963 
	C85.464424,66.699898 85.480949,69.673798 85.327843,72.178085 
	C84.963760,78.133049 82.459038,79.389359 77.020103,79.120949 
	C68.015999,78.676613 68.000000,79.000465 68.000015,88.102448 
	C68.000023,98.755859 68.000046,109.409271 68.000031,120.531342 
	C61.312355,121.000000 54.624710,121.000000 47.468533,121.000000 
z"/>

</svg>