<?xml version="1.0" standalone="no"?>
<!DOCTYPE svg PUBLIC "-//W3C//DTD SVG 20010904//EN"
 "http://www.w3.org/TR/2001/REC-SVG-20010904/DTD/svg10.dtd">
<svg class="fbicon" version="1.0" xmlns="http://www.w3.org/2000/svg"
 width="120.000000pt" height="120.000000pt" viewBox="0 0 120.000000 120.000000"
 preserveAspectRatio="xMidYMid meet">

<g transform="translate(0.000000,120.000000) scale(0.100000,-0.100000)"
fill="#0866FF" stroke="none">
<path d="M502 1189 c-111 -19 -233 -80 -315 -158 -122 -114 -199 -317 -182
-481 25 -242 174 -431 408 -515 l37 -14 0 194 0 195 -60 0 -60 0 0 95 0 95 60
0 60 0 0 52 c0 85 20 174 50 221 51 81 177 121 324 103 l56 -7 0 -87 0 -87
-58 0 c-70 -1 -116 -18 -131 -51 -6 -14 -11 -52 -11 -84 l0 -60 95 0 c109 0
103 9 77 -110 l-17 -75 -77 -3 -78 -3 0 -199 c0 -159 3 -200 13 -200 30 0 126
34 187 66 134 70 235 190 286 339 22 65 27 99 27 180 2 202 -85 373 -249 491
-121 86 -301 129 -442 103z"/>
</g>
</svg>
